<?xml version="1.0" standalone="no"?><!DOCTYPE svg PUBLIC "-//W3C//DTD SVG 1.1//EN" "http://www.w3.org/Graphics/SVG/1.1/DTD/svg11.dtd"><svg t="1740108478954" class="icon" viewBox="0 0 1024 1024" version="1.1" xmlns="http://www.w3.org/2000/svg" p-id="5048" xmlns:xlink="http://www.w3.org/1999/xlink" width="200" height="200"><path d="M898.5 255.6L568.4 76.4c-35.3-19.2-77.6-19.2-112.9 0l-330 179.2C86.4 276.8 62 318.2 62 363.3v476.6C62 907.3 115.7 962 181.9 962H842c66.2 0 119.9-54.7 119.9-122.1V363.3c0.1-45.1-24.3-86.5-63.4-107.7zM872 809.3c0 33.7-26.9 61.1-60 61.1H212c-33.1 0-60-27.3-60-61.1V369.5c0-22.6 12.2-43.3 31.8-53.9l300-162.9c17.6-9.6 38.8-9.6 56.5 0l300 162.9c19.6 10.6 31.8 31.3 31.8 53.9v439.8z" fill="" p-id="5049"></path><path d="M677 687.1H347c-24.8 0-45 20.6-45 45.8s20.2 45.8 45 45.8h330c24.8 0 45-20.6 45-45.8s-20.2-45.8-45-45.8z" fill="" p-id="5050"></path></svg>