<?xml version="1.0" standalone="no"?><!DOCTYPE svg PUBLIC "-//W3C//DTD SVG 1.1//EN" "http://www.w3.org/Graphics/SVG/1.1/DTD/svg11.dtd"><svg t="1740352555006" class="icon" viewBox="0 0 1024 1024" version="1.1" xmlns="http://www.w3.org/2000/svg" p-id="11462" xmlns:xlink="http://www.w3.org/1999/xlink" width="200" height="200"><path d="M520.7 519.6c-17.2 0-31.2 14-31.2 31.2 1.5 93.9-10.6 184.5-36 275-3.5 12.6 2.8 39.6 30.1 39.6 13.6 0 26.1-9 30-22.8 17.6-62.3 40.4-163 38.3-291.9 0-17.2-14-31.1-31.2-31.1z" fill="#2C2C2C" p-id="11463"></path><path d="M519.6 413.3c-79.6-0.1-135.2 61.2-134.1 131.4 1 62.3-4.9 124.7-17.4 185.3-3.5 16.9 7.4 33.4 24.2 36.9 17 3.5 33.4-7.4 36.9-24.2 13.4-65.1 19.7-132.1 18.7-198.9-0.5-33.7 25.9-68.2 70.8-68 40.7 0.6 74.3 32.9 74.9 72.1 1 62.5-3.7 125.2-13.8 186.6-2.8 17 8.7 33 25.7 35.9 26 4.3 34.9-19.6 35.9-25.7 10.8-65 15.7-131.6 14.7-197.8-1.3-72.6-62.4-132.5-136.5-133.6z" fill="#2C2C2C" p-id="11464"></path><path d="M375.7 387.6c-13.4-10.8-33-8.8-43.9 4.5-33.3 41-51.2 92.7-50.4 145.6 0.8 48.9-3.2 97.9-11.8 145.7-3 17 8.2 33.2 25.2 36.3 26.1 4.6 35.2-19.3 36.3-25.2 9.3-51.8 13.7-104.9 12.8-157.7-0.6-38.8 12-75.2 36.4-105.3 10.8-13.4 8.7-33-4.6-43.9z m142.3-81c-20-0.5-40.1 1.9-59.5 6.5-16.8 4-27.1 20.8-23.2 37.6 4 16.8 20.8 27.1 37.6 23.2 14.4-3.4 29.2-4.9 44.2-4.8 98.1 1.5 179.1 80 180.6 175 0.8 49.2-1.7 99-7.3 147.7-2 17.1 10.3 32.6 27.4 34.6 21.7 2.5 33.2-15.4 34.6-27.4 5.9-51.7 8.5-103.8 7.7-155.8C758 414.6 649.4 308.5 518 306.6z m327.7 157.9c-3.7-16.8-20.2-27.6-37.2-23.8-16.8 3.7-27.5 20.4-23.7 37.2 6.1 27.8 6.4 48.6 6.1 80.1-0.1 17.3 13.7 31.3 30.9 31.5h0.3c17.1 0 31.1-13.8 31.2-30.9 0.2-28.9 0.5-57.4-7.6-94.1z" fill="#2C2C2C" p-id="11465"></path><path d="M793.6 346.5c-63.3-90.2-166.9-145-277.2-146.7-90.7-1.1-174.7 32.4-237.1 94.8-60.3 60.4-92.7 140.6-91.4 225.9l-0.2 27.9c-0.5 17.2 13 31.6 30.3 32.1h0.9c16.8 0 30.7-13.4 31.2-30.3l0.2-30.7c-1.1-68.3 24.9-132.4 73.2-180.7 50.4-50.4 118.8-77.6 192-76.5 90.3 1.3 175.2 46.2 227 120.1 9.9 14.1 29.3 17.5 43.4 7.6 14.2-9.9 17.6-29.4 7.7-43.5z" fill="#2C2C2C" p-id="11466"></path></svg>