<?xml version="1.0" standalone="no"?><!DOCTYPE svg PUBLIC "-//W3C//DTD SVG 1.1//EN" "http://www.w3.org/Graphics/SVG/1.1/DTD/svg11.dtd"><svg t="1740108543472" class="icon" viewBox="0 0 1024 1024" version="1.1" xmlns="http://www.w3.org/2000/svg" p-id="6049" xmlns:xlink="http://www.w3.org/1999/xlink" width="200" height="200"><path d="M493.9 880.5c-104 0-208.1-39.6-287.3-118.8-158.4-158.4-158.4-416.1 0-574.5 158.4-158.4 416.1-158.4 574.5 0 158.4 158.4 158.4 416.1 0 574.5C702 840.9 598 880.5 493.9 880.5z m0-749.7c-88 0-176.1 33.5-243.1 100.5-134 134-134 352.1 0 486.1s352.1 134 486.1 0 134-352.1 0-486.1c-66.9-67-154.9-100.5-243-100.5z" p-id="6050"></path><path d="M753.573 778.249l44.193-44.194 132.582 132.581-44.194 44.194z" p-id="6051"></path></svg>